PathFileType	4	(X/Y/Z)	C:\Users\WrightLab\Desktop\Jo\P2_Trial24.trc
DataRate	CameraRate	NumFrames	NumMarkers	Units	OrigDataRate	OrigDataStartFrame	OrigNumFrames
100.00	100.00	       44	19	mm	100.00	1	       597
Frame#	Time	Headset_Front			Headset_Back			Headset_Left			Headset_Right			Left_Shoulder			Right_Shoulder			Sternum			C7			Left Elbow			Right Elbow			Left Wrist			Right Wrist			Left ASIS			Right ASIS			S2			Left Knee			Right Knee			Left Ankle			Right Ankle			
		X1	Y1	Z1	X2	Y2	Z2	X3	Y3	Z3	X4	Y4	Z4	X5	Y5	Z5	X6	Y6	Z6	X7	Y7	Z7	X8	Y8	Z8	X9	Y9	Z9	X10	Y10	Z10	X11	Y11	Z11	X12	Y12	Z12	X13	Y13	Z13	X14	Y14	Z14	X15	Y15	Z15	X16	Y16	Z16	X17	Y17	Z17	X18	Y18	Z18	X19	Y19	Z19	

1	0.000																									27.58244	1051.73218	-1491.78833							-557.30585	850.84772	-1485.88867																						
2	0.010																									27.36673	1051.67859	-1492.58032							-556.82532	851.45911	-1487.51111																						
3	0.020																									26.87378	1052.00635	-1492.59070							-555.88336	852.60498	-1490.23352																						
4	0.030																									26.04391	1052.08838	-1492.97351							-555.25232	852.05231	-1489.71729																						
5	0.040																									25.85155	1051.73584	-1494.37805							-554.76062	852.03253	-1489.65100																						
6	0.050																									25.73454	1051.63733	-1494.90771							-554.25812	852.02576	-1489.58252																						
7	0.060																									25.70116	1051.63452	-1495.01453							-553.74384	851.97791	-1489.40161																						
8	0.070																									25.72788	1051.54492	-1495.10840							-552.88019	852.41290	-1489.92065																						
9	0.080																									26.71918	1050.83521	-1496.24304							-552.27106	852.41705	-1489.25977																						
10	0.090																									26.93422	1050.60083	-1496.06592							-551.75342	851.79761	-1487.52332																						
11	0.100																									27.82916	1050.29956	-1497.45593							-550.18872	851.52911	-1487.00208																						
12	0.110																									28.08112	1050.06738	-1497.05237							-549.15594	850.73907	-1485.14526																						
13	0.120																									28.23571	1049.70886	-1497.42322							-548.64441	850.82257	-1483.98254																						
14	0.130																									29.07324	1049.16113	-1499.05945							-548.18640	850.99042	-1482.87231																						
15	0.140																									29.77634	1048.99170	-1500.81006							-547.75769	851.21729	-1481.69287																						
16	0.150																									30.15162	1048.72034	-1501.75549							-547.46460	850.83972	-1479.32605																						
17	0.160																									30.82378	1048.60889	-1503.89197							-547.11377	851.09503	-1477.85583																						
18	0.170																									30.88615	1048.38452	-1504.30920							-546.86139	851.43066	-1476.51770																						
19	0.180																									30.92994	1048.17944	-1504.83911							-546.64874	851.73627	-1475.10876																						
20	0.190																									30.93416	1048.19714	-1504.87817							-546.49805	852.05267	-1473.56604																						
21	0.200																									30.93728	1048.22424	-1504.94983							-546.43018	852.45233	-1472.09534																						
22	0.210																									30.90373	1048.27063	-1505.25635							-546.34894	852.80511	-1470.50488																						
23	0.220																									31.41952	1047.87000	-1506.84387							-547.11267	852.90057	-1467.84827																						
24	0.230																									31.29917	1048.26233	-1507.42834							-547.11633	853.26581	-1466.37939																						
25	0.240																									31.96633	1048.13660	-1509.59937							-547.17462	853.66345	-1464.73779																						
26	0.250																									32.63101	1048.27014	-1511.17554							-547.95367	853.73248	-1462.19409																						
27	0.260																									32.65984	1048.18811	-1511.53186							-548.00775	854.17035	-1460.66260																						
28	0.270																									33.25537	1048.30872	-1513.34412							-547.96838	854.51019	-1459.19495																						
29	0.280																									33.26501	1048.30859	-1513.31055							-547.93951	854.90704	-1457.59827																						
30	0.290																									33.29808	1048.33972	-1513.29126							-548.31909	854.24005	-1454.20471																						
31	0.300																									33.61650	1047.96399	-1513.54053							-548.18036	854.56842	-1452.68860																						
32	0.310																									37.31681	1047.98828	-1522.86426							-548.03162	854.85645	-1450.93774																						
33	0.320																									37.37721	1047.98718	-1522.96045							-548.08124	854.67371	-1448.41077																						
34	0.330																									37.65594	1047.80383	-1523.89429							-547.97687	854.31512	-1445.59729										-50.81013	415.85764	-1479.64246										
35	0.340																									37.76919	1047.71008	-1524.36206							-547.85773	854.59027	-1443.99658										-50.72397	415.96591	-1479.26245										
36	0.350																									35.05518	1047.12671	-1517.15588							-547.64832	854.90967	-1442.44995										-51.38326	415.75385	-1478.24976										
37	0.360																									35.06890	1047.14648	-1517.16846							-547.56079	855.25452	-1440.96790										-51.26203	415.80032	-1477.95972										
38	0.370																									35.48985	1047.40027	-1518.34143							-547.86359	855.69128	-1439.14624										-51.35613	415.33859	-1477.19373										
39	0.380																									35.52389	1047.50073	-1518.10791							-548.08917	855.74017	-1436.85059										-51.35613	415.33859	-1477.19373										
40	0.390																									36.25828	1047.58582	-1519.59668							-548.03870	856.17505	-1435.33398										-51.26820	415.48901	-1476.71423										
41	0.400																									36.24935	1047.75232	-1519.22607							-547.99017	856.57214	-1433.86609										-51.30706	415.59067	-1476.53845										
42	0.410																									36.26711	1047.77844	-1519.24438							-548.31543	856.71497	-1431.64563										-51.30706	415.59067	-1476.53845										
43	0.420																									37.02422	1047.88574	-1520.92090							-548.28607	857.10547	-1430.21033										-51.30706	415.59067	-1476.53845										
44	0.430																									37.02426	1048.05591	-1520.58240							-548.65863	857.47919	-1428.56458										-51.30706	415.59067	-1476.53845										
